<svg xmlns="http://www.w3.org/2000/svg" width="112" height="110" viewBox="0 0 112 110"><path fill="#FFF" d="M52.097 7.995c1.036 0 2.105.017 3.179.049l.229.007.228-.007c1.069-.032 2.136-.048 3.172-.048 15.503 0 26.436 3.501 33.425 10.704 7.277 7.499 10.57 19.277 10.066 36.008l-.007.227.007.228c.504 16.731-2.789 28.511-10.065 36.009-6.988 7.202-17.921 10.703-33.423 10.703-1.034 0-2.103-.016-3.175-.049l-.228-.007-.229.007a103.83 103.83 0 0 1-3.177.049c-15.501 0-26.433-3.501-33.421-10.701-7.277-7.5-10.569-19.279-10.065-36.011l.007-.228-.007-.228c-.504-16.731 2.788-28.51 10.065-36.009 6.989-7.202 17.92-10.703 33.419-10.703m0-7.565C16.507.43-.056 18.149 1.052 54.935-.056 91.723 16.506 109.441 52.1 109.441c1.116 0 2.252-.018 3.406-.053 1.152.035 2.286.052 3.402.052 35.594 0 52.158-17.716 51.05-54.505C111.066 18.146 94.502.43 58.903.43c-1.113 0-2.247.018-3.397.052A112.63 112.63 0 0 0 52.097.43"/><path fill="#FFF" d="M43.118 39.477a697.684 697.684 0 0 0-.347-11.566c-.271-1.208-1.401-2.162-2.716-2.225a321.478 321.478 0 0 1-6.498-.374c-1.482-.101-2.589.985-2.485 2.444.558 7.932.872 15.865.942 23.797 1.393-2.897 3.176-5.493 5.366-7.702a26.467 26.467 0 0 1 5.738-4.374m35.019-21.494c-2.223.184-4.444.34-6.667.471-1.521.09-2.812 1.299-2.877 2.723l-.04.843.062-.003c-.393 8.37-.636 16.74-.729 25.109-3.754-3.082-8.277-4.635-13.323-4.644-5.776-.001-11.433 2.25-15.505 6.373-4.431 4.469-6.864 10.996-7.099 18.197l-.006.166c-.325 9.281 3.113 14.816 6.302 17.811 4.068 3.884 10.067 5.936 16.246 5.924a26.986 26.986 0 0 0 3.731-.268l.011-.002c2.427-.375 2.358-2.252 2.359-2.254-.057-3.021-.106-6.043-.147-9.065a12.755 12.755 0 0 1-4.75.928c-3.327-.004-6.413-1.224-8.64-3.493-2.425-2.463-3.618-5.902-3.552-9.943l.003-.162c.134-8.137 4.941-13.567 12.182-13.551 4.873 0 9.839 3.155 11.755 8.73.196.714.442 2.101.484 4.597.079 4.834.208 9.668.388 14.502.299 1.172 1.405 2.082 2.688 2.143 2.157.1 4.316.223 6.475.363 1.477.101 2.583-.993 2.482-2.451a385.348 385.348 0 0 1 .67-60.646c.132-1.46-.983-2.524-2.503-2.398"/></svg>