<svg xmlns="http://www.w3.org/2000/svg" width="400" height="220" viewBox="0 0 400 220"><path fill="#FFF" d="M196.438 11.995c1.036 0 2.105.017 3.179.049l.229.007.228-.007c1.069-.032 2.136-.048 3.172-.048 15.503 0 26.436 3.501 33.425 10.704 7.277 7.499 10.57 19.277 10.066 36.008l-.007.227.007.228c.504 16.731-2.789 28.51-10.065 36.009-6.988 7.202-17.921 10.703-33.423 10.703-1.034 0-2.103-.016-3.175-.049l-.228-.007-.228.007a103.83 103.83 0 0 1-3.177.049c-15.501 0-26.433-3.501-33.421-10.702-7.277-7.499-10.569-19.278-10.065-36.01l.007-.228-.007-.228c-.504-16.731 2.788-28.51 10.065-36.009 6.988-7.202 17.919-10.703 33.418-10.703m0-7.565c-35.59 0-52.153 17.719-51.045 54.505-1.108 36.787 15.454 54.506 51.048 54.506 1.116 0 2.252-.018 3.405-.053 1.153.035 2.287.052 3.403.052 35.594 0 52.158-17.716 51.05-54.505 1.108-36.789-15.456-54.505-51.055-54.505-1.113 0-2.247.018-3.398.052-1.156-.035-2.29-.052-3.408-.052"/><path fill="#FFF" d="M187.459 43.477a697.684 697.684 0 0 0-.347-11.566c-.271-1.208-1.401-2.162-2.716-2.225a321.478 321.478 0 0 1-6.498-.374c-1.482-.101-2.589.985-2.485 2.444.558 7.932.872 15.865.942 23.797 1.393-2.897 3.176-5.493 5.366-7.702a26.467 26.467 0 0 1 5.738-4.374m35.019-21.494c-2.223.184-4.444.34-6.667.471-1.521.09-2.812 1.299-2.877 2.723l-.04.843.062-.003c-.393 8.37-.636 16.74-.729 25.109-3.754-3.082-8.277-4.635-13.323-4.644-5.776-.001-11.433 2.25-15.505 6.373-4.431 4.469-6.864 10.997-7.099 18.197l-.006.167c-.325 9.281 3.113 14.816 6.302 17.81 4.068 3.884 10.067 5.936 16.246 5.924a27.144 27.144 0 0 0 3.731-.267l.011-.002c2.427-.375 2.358-2.253 2.359-2.255-.057-3.021-.106-6.043-.147-9.065a12.735 12.735 0 0 1-4.75.928c-3.327-.004-6.413-1.224-8.64-3.493-2.425-2.464-3.618-5.903-3.552-9.944l.003-.162c.134-8.137 4.941-13.567 12.182-13.551 4.873 0 9.839 3.154 11.755 8.73.196.714.442 2.101.484 4.597.079 4.834.208 9.668.388 14.502.299 1.171 1.405 2.082 2.688 2.142 2.157.1 4.316.222 6.475.363 1.477.101 2.583-.993 2.482-2.451a385.35 385.35 0 0 1 .67-60.646c.132-1.458-.983-2.522-2.503-2.396M71.556 211.441a5.317 5.317 0 0 0-1.297-.861 11.654 11.654 0 0 0-1.845-.695c-.908-.266-1.582-.555-2.025-.866-.441-.312-.662-.702-.662-1.17 0-.248.044-.479.134-.693.089-.214.228-.399.416-.555.187-.157.423-.277.706-.365a3.475 3.475 0 0 1 1.005-.129 3.3 3.3 0 0 1 1.067.155c.3.104.549.25.745.438.197.189.343.411.438.668.096.258.143.539.143.846h2.184c0-.525-.104-1.022-.312-1.486a3.645 3.645 0 0 0-.896-1.227 4.276 4.276 0 0 0-1.435-.836c-.567-.207-1.205-.309-1.916-.309-.665 0-1.272.086-1.82.26-.55.174-1.02.416-1.413.729a3.336 3.336 0 0 0-.915 1.109 3.072 3.072 0 0 0-.325 1.404c0 .514.104.971.312 1.369s.495.751.863 1.058c.366.306.805.575 1.313.806.509.232 1.063.437 1.665.615.548.168.997.328 1.348.482.349.152.624.312.823.48.199.168.336.352.412.551.075.199.112.426.112.68 0 .509-.193.918-.576 1.227-.385.31-.958.465-1.721.465-.387 0-.749-.043-1.084-.127s-.625-.217-.871-.398-.439-.416-.58-.702c-.142-.286-.213-.628-.213-1.026h-2.193c0 .67.143 1.254.43 1.75a3.86 3.86 0 0 0 1.131 1.244c.468.332.996.58 1.586.745a6.62 6.62 0 0 0 1.794.247c.682 0 1.3-.079 1.855-.238a4.237 4.237 0 0 0 1.418-.685c.389-.298.69-.659.901-1.084.211-.424.316-.901.316-1.435 0-.502-.084-.955-.252-1.356a3.112 3.112 0 0 0-.766-1.085m44.654-5.144h3.902v10.853h2.175v-10.853h3.935v-1.769H116.21v1.769zm61.319 6.674c0 .451-.058.84-.177 1.166a2.145 2.145 0 0 1-.503.811 1.954 1.954 0 0 1-.797.473 3.415 3.415 0 0 1-1.054.151c-.387 0-.736-.05-1.048-.151a2.005 2.005 0 0 1-.798-.473 2.132 2.132 0 0 1-.507-.811c-.118-.326-.178-.715-.178-1.166v-8.442h-2.184v8.442c0 .723.119 1.355.356 1.898.237.545.566.997.988 1.361.422.363.92.637 1.495.818a6.16 6.16 0 0 0 1.876.273c.653 0 1.267-.091 1.838-.273a4.303 4.303 0 0 0 1.5-.818 3.814 3.814 0 0 0 1.009-1.361c.246-.543.369-1.176.369-1.898v-8.442h-2.185v8.442zm54.962-6.809c-.501-.522-1.099-.926-1.795-1.209s-1.467-.425-2.311-.425h-3.727v12.621h3.623c.873 0 1.666-.142 2.379-.424a5.22 5.22 0 0 0 1.83-1.206 5.35 5.35 0 0 0 1.17-1.885c.273-.737.411-1.562.411-2.476v-.624c0-.912-.139-1.738-.416-2.479a5.504 5.504 0 0 0-1.164-1.893m-.62 4.997a6.4 6.4 0 0 1-.227 1.777 3.65 3.65 0 0 1-.672 1.335 2.905 2.905 0 0 1-1.121.836c-.451.193-.975.291-1.569.291h-1.431v-9.102h1.534c1.133 0 1.996.361 2.592 1.084s.894 1.768.894 3.138v.641zm47.121 5.99h2.184v-12.621h-2.184v12.621zm57.179-9.206c-.251-.762-.607-1.41-1.066-1.941s-1.011-.938-1.655-1.223a5.287 5.287 0 0 0-2.137-.424c-.773 0-1.481.143-2.124.424a4.637 4.637 0 0 0-1.65 1.223c-.459.531-.817 1.18-1.075 1.941-.257.764-.385 1.624-.385 2.583v.642c0 .959.128 1.819.385 2.58.258.758.618 1.403 1.084 1.932a4.722 4.722 0 0 0 1.66 1.219 5.216 5.216 0 0 0 2.123.424 5.25 5.25 0 0 0 2.133-.424 4.59 4.59 0 0 0 1.646-1.219c.456-.528.811-1.174 1.062-1.932.252-.761.377-1.621.377-2.58v-.642c-.001-.959-.126-1.819-.378-2.583m-1.817 3.225c0 1.422-.261 2.502-.783 3.242-.523.739-1.271 1.109-2.241 1.109-.468 0-.892-.094-1.27-.281a2.638 2.638 0 0 1-.967-.832c-.266-.367-.47-.822-.611-1.365s-.212-1.168-.212-1.873v-.658c0-.705.07-1.327.212-1.868.142-.54.345-.992.607-1.356.262-.363.582-.64.957-.828a2.791 2.791 0 0 1 1.266-.281c.48 0 .909.094 1.287.281.379.188.698.465.958.828.261.364.458.816.595 1.356.135.541.202 1.163.202 1.868v.658zM41.088 188.553c-2.678 0-4.568-1.214-5.62-3.605-.365-.808-.552-1.598-.552-2.344 0-1.636.255-3.31.757-4.976a126.013 126.013 0 0 1 1.63-5.022l4.074-11.584a99.562 99.562 0 0 0-8.324-.359c-2.786 0-5.71.176-8.696.521-3.893 10.815-8.131 18.674-12.6 23.363-1.686 1.788-3.469 3.018-5.297 3.65a4.095 4.095 0 0 1-1.482.281c-.511 0-.977-.093-1.386-.275a2.978 2.978 0 0 1-1.004-.709c-.577-.549-.881-1.176-.881-1.844 0-.688.242-1.216.721-1.566 3.751-2.69 7.795-9.743 12.027-20.971l-.401.117c-.1.03-.204.045-.311.045-.286 0-.585-.103-.914-.313a3.905 3.905 0 0 1-1.032-.989c-.974-1.347-.647-2.105-.202-2.504.894-.791 2.498-1.514 4.901-2.208 3.113-9.667 4.804-16.707 5.029-20.942a5.798 5.798 0 0 0-2.177.722l-2.809 1.59a1.855 1.855 0 0 1-.898.228c-.758 0-1.608-.416-2.6-1.271-1.338-1.124-1.932-2.245-1.761-3.328.194-1.592 2.229-2.841 6.218-3.807 1.377-.33 2.435-.491 3.236-.491.769 0 1.533.019 2.292.056a11.61 11.61 0 0 1 2.125.288c2.591.622 4.217 1.777 4.831 3.433.263.736.396 1.621.396 2.635 0 .988-.101 2.166-.301 3.496a68.503 68.503 0 0 1-.854 4.516c-.75 3.467-1.746 7.201-2.961 11.107 5.17-.592 10.577-.892 16.082-.892h1.295l1.938-5.778c2.247-6.766 3.646-11.951 4.158-15.408.44-2.854 2.15-3.452 3.507-3.452 1.219 0 2.247.313 3.056.934 1.482 1.087 2.209 2.302 2.154 3.611-.051 1.194-.267 2.547-.64 4.017a74.545 74.545 0 0 1-1.449 4.903 171.655 171.655 0 0 1-2.036 5.813l-2.139 5.74.349.029c.386.051.734.093 1.063.13.366.04.693.118.975.229.853.326 1.033.939 1.033 1.396 0 .545-.159 1.119-.473 1.707a5.98 5.98 0 0 1-1.287 1.606c-1.254 1.132-2.715 1.759-4.346 1.865-2.927 7.705-4.655 12.498-5.139 14.25-.48 1.74-.724 2.928-.724 3.53 0 1.406.631 1.586 1.18 1.586.914 0 1.659-.146 2.213-.434l1.335-.668c.337-.154.655-.228.959-.228.741 0 1.184.442 1.184 1.184 0 2.338-1.349 4.308-4.008 5.856-1.729 1.016-3.552 1.534-5.414 1.534m35.332-4.413c-1.4 0-2.508-.351-3.291-1.042-1.324-1.172-1.995-2.629-1.995-4.33 0-1.139.273-2.626.811-4.438-1.479 1.93-2.608 3.326-3.366 4.164-1.204 1.328-2.272 2.381-3.174 3.127-2.039 1.672-3.941 2.519-5.654 2.519-2.692 0-4.512-1.19-5.41-3.535-.261-.719-.393-1.532-.393-2.425 0-.872.149-1.854.442-2.918a29.753 29.753 0 0 1 1.104-3.221 91.407 91.407 0 0 1 1.445-3.383l1.549-3.442c2.746-6.099 2.315-7.087 2.256-7.181-.113-.178-.385-.471-1.039-.847-.264-.153-.707-.53-.707-1.331 0-.52.204-1.007.605-1.447.332-.367.761-.69 1.276-.959 1.053-.494 2.107-.742 3.147-.742s1.83.117 2.413.355c.575.237 1.054.546 1.427.919.769.769 1.158 1.646 1.158 2.606 0 .822-.133 1.748-.396 2.751a36.486 36.486 0 0 1-.996 3.147 104.375 104.375 0 0 1-1.328 3.467c-1.316 3.09-2.217 5.164-2.682 6.172l-1.067 2.22c-.738 1.642-.818 2.274-.818 2.47 0 .545.103.686.104.688.014.008.122.052.363.052.202 0 .565-.086 1.145-.498.556-.394 1.181-.937 1.858-1.612a34.42 34.42 0 0 0 2.162-2.404 60.738 60.738 0 0 0 2.212-2.85c1.413-1.921 2.459-3.48 3.11-4.633 5.389-9.533 6.338-11.088 6.556-11.352.735-.988 1.558-1.498 2.438-1.498.709 0 1.343.084 1.886.246a4.43 4.43 0 0 1 1.47.74c1.456 1.073 1.241 2.131.982 2.664-4.614 9.625-7.13 15.732-7.48 18.15-.113 1.006-.136 1.468-.136 1.675 0 1.457.448 1.457.595 1.457.696 0 1.264-.119 1.687-.353.849-.472 1.194-.537 1.441-.537.84 0 1.383.543 1.383 1.384 0 1.909-.936 3.521-2.781 4.786-1.235.81-2.683 1.219-4.312 1.219m49.569 0c-1.049 0-1.923-.132-2.599-.394a5.162 5.162 0 0 1-1.867-1.264c-1.201-1.242-1.81-2.81-1.81-4.662 0-1.726.223-3.341.663-4.799a36.722 36.722 0 0 1 1.522-4.141 54.67 54.67 0 0 1 1.759-3.665 63.737 63.737 0 0 0 1.319-2.595c.701-1.533.849-2.285.849-2.646 0-.3-.021-.395-.453-.395-.281 0-1.47.35-4.996 4.857-1.997 2.62-3.407 4.538-4.186 5.696l-1.986 2.876c-1.065 2.035-1.909 3.771-2.482 5.122l-1.467 3.337c-.394.89-.735 1.511-1.044 1.896-.408.506-.989.774-1.684.774a5.04 5.04 0 0 1-1.625-.269 4.787 4.787 0 0 1-1.368-.713c-.93-.691-1.404-1.479-1.404-2.34 0-.717.217-1.636.664-2.811.417-1.096.94-2.331 1.554-3.674l4.02-8.5c1.811-3.984 2.082-5.282 2.082-5.701 0-.528-.154-.553-.452-.553-.405 0-1.756.446-5.549 4.584-2.176 2.48-3.779 4.371-4.756 5.612l-2.583 3.271c-1.049 2.017-1.91 3.754-2.518 5.101l-1.554 3.335c-.439.9-.818 1.524-1.162 1.911-.439.495-1.027.746-1.746.746a4.744 4.744 0 0 1-1.725-.322 5.003 5.003 0 0 1-1.421-.823c-.897-.754-1.351-1.615-1.351-2.562 0-.296.084-.768.707-2.016l1.083-2.309c.351-.703.751-1.581 1.195-2.617l1.602-3.92c2.754-6.885 3.332-9.596 3.332-10.656 0-.65-.179-1.086-.565-1.369l-.561-.391c-.271-.189-.596-.568-.596-1.297 0-.508.188-.988.559-1.428a4.273 4.273 0 0 1 1.225-.973c.973-.498 1.96-.748 2.943-.748.966 0 1.721.111 2.31.336a4.886 4.886 0 0 1 1.514.91c.886.815 1.332 1.701 1.332 2.635 0 .783-.104 1.584-.31 2.377a22.538 22.538 0 0 1-.741 2.312l-.086.223c1.36-1.737 2.256-2.859 2.676-3.348 1.5-1.732 2.694-2.945 3.551-3.602 1.638-1.225 3.228-1.844 4.73-1.844 1.549 0 2.81.502 3.751 1.488.933.977 1.406 2.264 1.406 3.827 0 1.021-.204 2.183-.607 3.468l1.372-1.812 2.374-2.838c1.487-1.668 2.823-2.782 3.98-3.32 1.178-.547 2.137-.813 2.93-.813a6.42 6.42 0 0 1 2.264.42 5.375 5.375 0 0 1 1.935 1.228c1.11 1.066 1.676 2.495 1.676 4.241 0 1.587-.369 3.229-1.094 4.882a73.186 73.186 0 0 1-1.828 3.899 99.43 99.43 0 0 0-1.481 3.004c-1.343 2.926-2.024 5.102-2.024 6.462 0 .825.261.825.538.825.681 0 1.307-.146 1.86-.434 1.009-.525 1.371-.599 1.611-.599.806 0 1.327.521 1.327 1.327 0 1.953-.988 3.594-2.937 4.878-1.275.866-2.487 1.303-3.597 1.303m19.167 0c-2.836 0-5.107-.888-6.753-2.64-1.598-1.74-2.406-3.934-2.406-6.52 0-1.143.085-2.252.253-3.299a37.7 37.7 0 0 1 .644-3.131c.263-1.055.562-2.11.887-3.142l3.215-9.819c2.519-7.879 4.122-14.113 4.764-18.528.344-2.636 2.071-3.03 3.069-3.03.96 0 1.793.264 2.474.779 1.21.98 1.8 2.062 1.764 3.225-.03.965-.17 2.049-.417 3.225a61.759 61.759 0 0 1-.929 3.761 105.128 105.128 0 0 1-1.286 4.247c-1.095 3.236-1.96 5.725-2.58 7.425.348-.399.674-.737.975-1.011 2.237-1.973 4.61-2.973 7.056-2.973 3.683 0 6.165 1.938 7.376 5.756.384 1.276.579 2.863.579 4.724s-.276 3.729-.82 5.558a22.784 22.784 0 0 1-2.208 5.098 22.464 22.464 0 0 1-3.246 4.252 23.234 23.234 0 0 1-3.895 3.229c-2.901 1.866-5.766 2.814-8.516 2.814m9.052-25.679c-.593 0-1.244.26-1.934.775-.781.581-1.614 1.363-2.476 2.326a31.064 31.064 0 0 0-2.606 3.393 37.982 37.982 0 0 0-2.337 3.982c-1.49 2.964-2.246 5.495-2.246 7.52 0 1.756.642 2.504 2.146 2.504 1.61 0 3.295-.75 5.006-2.232 2.696-2.333 4.538-5.732 5.475-10.105.314-1.438.472-2.955.472-4.511 0-1.848-.246-2.676-.453-3.046-.234-.42-.557-.606-1.047-.606m17.066 25.679c-1.05 0-1.924-.132-2.599-.394a5.164 5.164 0 0 1-1.868-1.265c-.543-.563-.986-1.286-1.316-2.149-.326-.853-.493-1.847-.493-2.957 0-1.084.246-2.533.729-4.307a117.06 117.06 0 0 1 1.804-5.919l2.412-7.147c3.39-9.85 5.377-17.555 5.904-22.907.285-2.665 2.048-3.063 3.073-3.063 1.033 0 1.911.26 2.609.772 1.311.995 1.949 2.146 1.902 3.422-.04 1.075-.229 2.388-.562 3.901a71.261 71.261 0 0 1-1.276 4.897 130.08 130.08 0 0 1-1.788 5.582l-3.958 11.647c-2.24 6.512-3.375 10.748-3.375 12.591 0 .825.261.825.538.825.681 0 1.307-.146 1.86-.434.953-.496 1.334-.599 1.611-.599.806 0 1.327.521 1.327 1.327 0 1.953-.988 3.594-2.937 4.878-1.277.862-2.488 1.299-3.597 1.299m15.912 15.512c-.846 0-1.562-.178-2.128-.531-1.194-.715-1.777-1.452-1.777-2.25 0-.616.324-1.426 1.866-1.781.784-.182 1.613-.553 2.466-1.107a18.876 18.876 0 0 0 2.582-2.029c2.448-2.338 4.375-4.912 5.727-7.652 1.161-2.434 2.114-4.779 2.83-6.964l.925-2.822-1.321 1.761c-1.832 2.318-3.377 3.99-4.601 4.978-2.379 1.915-4.569 2.888-6.509 2.888-2.69 0-4.51-1.191-5.41-3.535-.261-.72-.392-1.533-.392-2.427 0-.875.149-1.856.443-2.918a29.81 29.81 0 0 1 1.102-3.22 93.964 93.964 0 0 1 1.446-3.383l1.549-3.443c2.745-6.098 2.315-7.086 2.256-7.179-.113-.179-.385-.472-1.039-.849-.264-.154-.707-.529-.707-1.33 0-.519.204-1.006.605-1.447.331-.367.761-.69 1.276-.958 1.053-.495 2.107-.742 3.147-.742s1.829.116 2.412.354c.575.237 1.055.547 1.428.92.768.768 1.158 1.645 1.158 2.605 0 .822-.133 1.748-.397 2.751a36.688 36.688 0 0 1-.995 3.147 107.53 107.53 0 0 1-1.328 3.467c-1.319 3.096-2.22 5.17-2.683 6.173l-1.067 2.219c-.737 1.644-.817 2.275-.817 2.47 0 .545.103.686.104.687.014.009.122.053.363.053.305 0 .686-.14 1.104-.405.509-.32 1.069-.758 1.666-1.299a27.706 27.706 0 0 0 1.913-1.943c.669-.745 1.33-1.53 1.964-2.332 1.671-2.064 2.921-3.852 3.72-5.319 6.219-11.458 6.51-11.862 6.619-12.014.784-1.021 1.62-1.533 2.495-1.533.708 0 1.343.083 1.886.246a4.433 4.433 0 0 1 1.471.739c1.387 1.006 1.175 2.138.923 2.721-.29.674-.646 1.613-1.059 2.794-3.616 10.493-6.002 17.14-7.086 19.749-1.083 2.607-2.042 4.734-2.85 6.32a46.561 46.561 0 0 1-2.87 4.852 36.924 36.924 0 0 1-3.526 4.479c-2.909 3.105-5.711 4.795-8.331 5.021a8.942 8.942 0 0 1-.553.018m49.634-11.062c-2.817 0-5.277-.84-7.313-2.493-2.226-1.785-3.157-4.16-2.771-7.058.224-1.609.705-3.855 1.433-6.678.724-2.812 1.666-5.863 2.799-9.066 2.584-7.332 5.69-13.958 9.236-19.695.557-.889 1.284-1.412 2.166-1.555 1.107-.151 2.089-.227 2.929-.227.858 0 1.642.098 2.328.293.701.198 1.266.465 1.677.793.909.758 1.064 1.649.446 2.516-4.409 6.65-8.321 14.896-11.619 24.498-1.244 3.658-1.997 6.228-2.237 7.638a96.692 96.692 0 0 1-.539 2.97 6.56 6.56 0 0 0-.157 1.301c0 .422.139.812 1.144.812.979 0 2.1-.233 3.329-.694 1.253-.471 2.623-1.144 4.071-2 1.452-.858 2.985-1.925 4.555-3.166a48.52 48.52 0 0 0 4.634-4.195 49.353 49.353 0 0 0 4.287-5.036 38.535 38.535 0 0 0 3.509-5.702c2.202-4.357 3.318-8.707 3.318-12.932 0-5.78-2.273-9.51-6.948-11.404a13.675 13.675 0 0 0-5.074-.969c-1.777 0-3.299.117-4.523.345-1.232.229-2.43.553-3.557.962-2.281.816-4.225 1.92-5.78 3.284-.544.327-1.122.471-1.783.471-.655 0-1.357-.188-2.088-.562a8.092 8.092 0 0 1-1.926-1.361c-1.338-1.309-1.873-2.605-1.595-3.857.3-1.744 2.718-3.192 7.389-4.406a45.936 45.936 0 0 1 11.407-1.454c3.819 0 7.312.528 10.382 1.573 3.081 1.047 5.622 2.481 7.553 4.261 3.617 3.366 5.451 7.929 5.451 13.562 0 7.395-2.588 14.624-7.69 21.485-4.67 6.351-10.312 11.239-16.767 14.526-4.201 2.136-8.129 3.22-11.676 3.22m44.543-4.451c-2.996 0-5.444-.92-7.281-2.733-2.054-2.054-3.031-4.86-2.91-8.343.078-1.726.369-3.396.864-4.971a23.963 23.963 0 0 1 1.982-4.556 26.798 26.798 0 0 1 2.905-4.159 23.022 23.022 0 0 1 3.63-3.451c2.853-2.135 5.789-3.216 8.728-3.216 3.579 0 6.006 1.513 7.213 4.497.417 1 .618 2.191.598 3.539-.021 1.344-.281 2.604-.776 3.748a10.877 10.877 0 0 1-2.043 3.105 14.67 14.67 0 0 1-3.048 2.459 20.503 20.503 0 0 1-3.791 1.814c-2.604.918-5.411 1.43-8.356 1.521a6.964 6.964 0 0 0 .126 2.145c.115.571.313 1.083.592 1.523.567.945 1.319 1.383 2.371 1.383 2.072 0 4.125-.62 6.104-1.844.7-.412 1.265-.834 1.69-1.258.614-.615 1.182-.916 1.73-.916.418 0 1.021.168 1.518.957.33.526.498 1.125.498 1.776 0 1.172-.341 2.209-1.011 3.081-2.592 2.602-6.392 3.899-11.333 3.899m7.287-26.166c-1.744 0-3.491 1.282-5.195 3.812-1.342 2.029-2.471 4.436-3.358 7.154 2.565-.463 4.85-1.618 6.797-3.439 1.998-1.91 3.012-3.73 3.012-5.41-.001-2.117-.847-2.117-1.256-2.117m17.121 26.137c-2.629 0-4.754-.653-6.314-1.944-1.355-1.137-2.042-2.512-2.042-4.088 0-.705.157-1.371.467-1.978a5.106 5.106 0 0 1 1.121-1.485c.932-.865 1.945-1.307 3.009-1.307 1.173 0 1.872.711 1.872 1.9 0 1.731.532 2.889 1.626 3.539.364.218.741.328 1.122.328.44 0 .812-.047 1.103-.138.272-.087.531-.228.766-.418.522-.42.765-.87.765-1.417 0-.641-.145-1.234-.43-1.766a17.072 17.072 0 0 0-1.239-1.939l-1.64-2.302c-2.372-3.162-3.577-6.153-3.577-8.884 0-2.338.992-4.473 2.949-6.348 2.196-2.094 5.038-3.156 8.447-3.156 2.999 0 5.39.766 7.105 2.274 1.457 1.267 2.197 2.752 2.197 4.417 0 1.738-.673 3.146-1.999 4.186-.946.736-1.922 1.109-2.901 1.109a3.92 3.92 0 0 1-.787-.08c-.654-.138-1.165-.478-1.521-1.012-.371-.557-.451-1.214-.229-1.898.13-.404.194-.832.194-1.271 0-.412-.076-.798-.227-1.146a2.628 2.628 0 0 0-.607-.879c-.535-.506-1.062-.75-1.613-.75-.651 0-1.187.068-1.589.205-.39.133-.735.324-1.028.571-.575.531-.861 1.185-.861 1.985 0 .89.15 1.66.447 2.287.324.686.733 1.385 1.216 2.076a43.586 43.586 0 0 0 1.622 2.172 23.258 23.258 0 0 1 1.688 2.429c1.268 2.032 1.912 3.874 1.912 5.468 0 1.592-.346 2.956-1.026 4.053a9.718 9.718 0 0 1-2.573 2.745c-2.198 1.633-4.697 2.462-7.425 2.462m22.231.03c-2.518 0-4.274-1.05-5.221-3.12-.347-.714-.524-1.592-.524-2.596 0-.965.17-2.041.502-3.198.321-1.12.724-2.31 1.196-3.532.47-1.218.99-2.47 1.549-3.723l1.515-3.6c1.329-3.23 1.607-4.533 1.607-5.056 0-1.06-.147-1.3-.153-1.31a1.825 1.825 0 0 0-.41-.461l-.562-.391c-.272-.189-.597-.568-.597-1.297 0-.508.188-.989.559-1.428a4.28 4.28 0 0 1 1.225-.973c.973-.498 2.102-.748 3.359-.748 4.085 0 4.941 1.596 4.941 2.934 0 1.808-.472 3.883-1.401 6.169-.906 2.224-1.684 4.034-2.311 5.383l-1.713 3.942c-1.217 2.803-1.834 4.818-1.834 5.994 0 .439.102.539.538.539.88 0 1.324-.129 1.54-.238.543-.271.927-.393 1.243-.393.711 0 1.471.446 1.471 1.699 0 1.035-.455 2.092-1.351 3.139-1.286 1.504-3.025 2.265-5.168 2.265m7.429-35.082a3.753 3.753 0 0 1-1.613-.363 4.673 4.673 0 0 1-1.608-1.253c-.93-1.081-1.402-2.213-1.402-3.361 0-1.13.194-1.976.59-2.588a4.662 4.662 0 0 1 1.408-1.406c1.033-.666 2.038-1.006 2.987-1.006.866 0 1.563.066 2.071.196.531.136 1.03.364 1.483.681 1.137.767 1.716 1.743 1.716 2.903 0 1.001-.15 1.86-.446 2.552a6.146 6.146 0 0 1-1.155 1.787 5.993 5.993 0 0 1-1.63 1.239 5.572 5.572 0 0 1-1.944.593 4.202 4.202 0 0 1-.457.026m7.707 50.571c-.407 0-.737-.035-1.01-.106a5.061 5.061 0 0 1-1.371-.57c-.988-.633-1.466-1.257-1.466-1.909 0-.602.252-1.656 1.936-1.947.799-.137 1.66-.47 2.558-.988a15.478 15.478 0 0 0 2.658-1.959c2.866-2.655 5.198-6.647 6.942-11.881-2.432 2.57-5.088 3.871-7.918 3.871-3.528 0-5.933-1.885-7.144-5.605-.404-1.23-.61-2.755-.61-4.527 0-1.764.257-3.554.761-5.32a24.011 24.011 0 0 1 2.056-5.014 24.45 24.45 0 0 1 3.06-4.363 22.956 22.956 0 0 1 3.779-3.449c2.823-2.09 5.689-3.15 8.513-3.15 2.592 0 4.562 1.072 5.867 3.188.19-.248.398-.484.622-.708.646-.644 1.239-.958 1.818-.958.444 0 .916.08 1.398.236.46.149.911.355 1.341.612 1.63.966 1.629 1.884 1.341 2.483a59.236 59.236 0 0 0-2.604 6.623l-4.244 13.537c-3.39 10.402-7.785 17.238-13.063 20.318-1.436.848-2.716 1.348-3.804 1.485-.544.066-1.021.101-1.416.101m12.571-42.172c-.739 0-1.5.238-2.258.709-.812.504-1.601 1.198-2.342 2.064-.761.89-1.482 1.941-2.143 3.123a27.455 27.455 0 0 0-2.904 7.937c-.277 1.393-.416 2.536-.416 3.402 0 .885.025 1.561.08 2.009.048.397.143.748.279 1.037.334.702.731.792 1.039.792.586 0 1.188-.219 1.784-.652.677-.488 1.408-1.18 2.176-2.056.777-.89 1.567-1.952 2.348-3.158a44.364 44.364 0 0 0 2.257-3.95c1.553-3.07 2.663-6.037 3.3-8.822-.088-.25-.324-.637-.756-1.069-.924-.891-1.772-1.366-2.444-1.366m34.924 26.683c-1.048 0-1.939-.119-2.649-.353a5.333 5.333 0 0 1-1.974-1.16c-1.275-1.146-1.925-2.754-1.925-4.777 0-2.305.725-5.199 2.151-8.602 1.015-2.278 1.745-3.863 2.171-4.719l.971-2.027c.677-1.396.818-2.176.818-2.584 0-.11 0-.338-.854-.338-.097 0-.647.071-2.002 1.483a75.481 75.481 0 0 0-2.812 3.084l-2.434 2.919-4.691 5.979c-1.05 2.017-1.911 3.754-2.521 5.103l-1.553 3.335c-.439.9-.819 1.524-1.163 1.911-.438.495-1.025.746-1.746.746a4.739 4.739 0 0 1-1.724-.322 4.995 4.995 0 0 1-1.422-.823c-.896-.754-1.352-1.615-1.352-2.562 0-.296.085-.768.708-2.016l1.082-2.309c.353-.703.752-1.581 1.195-2.617l1.603-3.92c2.754-6.885 3.331-9.596 3.331-10.656 0-.65-.179-1.086-.564-1.369l-.561-.391c-.271-.189-.596-.568-.596-1.297 0-.508.188-.988.559-1.428a4.256 4.256 0 0 1 1.225-.973c.973-.498 1.961-.748 2.943-.748.971 0 1.721.111 2.291.34a4.235 4.235 0 0 1 1.447.934c.844.799 1.274 1.678 1.274 2.607 0 .783-.1 1.578-.293 2.367a22.78 22.78 0 0 1-.688 2.246c.207-.271.38-.496.523-.674l2.019-2.424c1.535-1.795 2.722-2.956 3.629-3.555 1.836-1.238 3.281-1.842 4.415-1.842 1.057 0 1.972.142 2.72.418a6.001 6.001 0 0 1 1.989 1.209c1.201 1.115 1.812 2.549 1.812 4.262 0 1.6-.367 3.287-1.09 5.014-.688 1.645-1.297 3.004-1.812 4.043a72.482 72.482 0 0 0-1.435 3.082c-1.39 3.092-2.091 5.34-2.091 6.682 0 .22.517.252.824.252.682 0 1.308-.146 1.86-.434 1.009-.525 1.371-.599 1.612-.599.806 0 1.326.521 1.326 1.327 0 1.953-.988 3.594-2.937 4.878-1.274.861-2.49 1.298-3.609 1.298"/></svg>