<?xml version="1.0" encoding="utf-8"?>
<!-- Generator: Adobe Illustrator 16.0.4, SVG Export Plug-In . SVG Version: 6.00 Build 0)  -->
<!DOCTYPE svg PUBLIC "-//W3C//DTD SVG 1.1//EN" "http://www.w3.org/Graphics/SVG/1.1/DTD/svg11.dtd">
<svg version="1.1" id="Layer_1" xmlns="http://www.w3.org/2000/svg" xmlns:xlink="http://www.w3.org/1999/xlink" x="0px" y="0px"
	 width="400px" height="220px" viewBox="0 0 400 220" enable-background="new 0 0 400 220" xml:space="preserve">
<path fill="#FFFFFF" d="M196.438,11.995c1.036,0,2.105,0.017,3.179,0.049l0.229,0.007l0.228-0.007
	c1.069-0.032,2.136-0.048,3.172-0.048c15.503,0,26.436,3.501,33.425,10.704c7.277,7.499,10.57,19.277,10.066,36.008l-0.007,0.227
	l0.007,0.228c0.504,16.731-2.789,28.51-10.065,36.009c-6.988,7.202-17.921,10.703-33.423,10.703c-1.034,0-2.103-0.016-3.175-0.049
	l-0.228-0.007l-0.228,0.007c-1.073,0.033-2.142,0.049-3.177,0.049c-15.501,0-26.433-3.501-33.421-10.702
	c-7.277-7.499-10.569-19.278-10.065-36.01l0.007-0.228l-0.007-0.228c-0.504-16.731,2.788-28.51,10.065-36.009
	C170.008,15.496,180.939,11.995,196.438,11.995 M196.438,4.43c-35.59,0-52.153,17.719-51.045,54.505
	c-1.108,36.787,15.454,54.506,51.048,54.506c1.116,0,2.252-0.018,3.405-0.053c1.153,0.035,2.287,0.052,3.403,0.052
	c35.594,0,52.158-17.716,51.05-54.505c1.108-36.789-15.456-54.505-51.055-54.505c-1.113,0-2.247,0.018-3.398,0.052
	C198.69,4.447,197.556,4.43,196.438,4.43"/>
<path fill="#FFFFFF" d="M187.459,43.477c-0.084-3.855-0.199-7.711-0.347-11.566c-0.271-1.208-1.401-2.162-2.716-2.225
	c-2.166-0.102-4.332-0.228-6.498-0.374c-1.482-0.101-2.589,0.985-2.485,2.444c0.558,7.932,0.872,15.865,0.942,23.797
	c1.393-2.897,3.176-5.493,5.366-7.702C183.43,46.126,185.364,44.668,187.459,43.477 M222.478,21.983
	c-2.223,0.184-4.444,0.34-6.667,0.471c-1.521,0.09-2.812,1.299-2.877,2.723c-0.014,0.281-0.026,0.562-0.04,0.843
	c0.021-0.001,0.042-0.002,0.062-0.003c-0.393,8.37-0.636,16.74-0.729,25.109c-3.754-3.082-8.277-4.635-13.323-4.644
	c-5.776-0.001-11.433,2.25-15.505,6.373c-4.431,4.469-6.864,10.997-7.099,18.197c-0.002,0.056-0.004,0.111-0.006,0.167
	c-0.325,9.281,3.113,14.816,6.302,17.81c4.068,3.884,10.067,5.936,16.246,5.924c1.281-0.005,2.526-0.095,3.731-0.267
	c0.003,0,0.008-0.002,0.011-0.002c2.427-0.375,2.358-2.253,2.359-2.255c-0.057-3.021-0.106-6.043-0.147-9.065
	c-1.504,0.607-3.126,0.928-4.75,0.928c-3.327-0.004-6.413-1.224-8.64-3.493c-2.425-2.464-3.618-5.903-3.552-9.944
	c0.001-0.054,0.002-0.109,0.003-0.162c0.134-8.137,4.941-13.567,12.182-13.551c4.873,0,9.839,3.154,11.755,8.73
	c0.196,0.714,0.442,2.101,0.484,4.597c0.079,4.834,0.208,9.668,0.388,14.502c0.299,1.171,1.405,2.082,2.688,2.142
	c2.157,0.1,4.316,0.222,6.475,0.363c1.477,0.101,2.583-0.993,2.482-2.451c-1.37-20.216-1.147-40.43,0.67-60.646
	C225.113,22.921,223.998,21.857,222.478,21.983"/>
<path fill="#FFFFFF" d="M71.556,211.441c-0.345-0.32-0.776-0.607-1.297-0.861c-0.52-0.256-1.135-0.486-1.845-0.695
	c-0.908-0.266-1.582-0.555-2.025-0.866c-0.441-0.312-0.662-0.702-0.662-1.17c0-0.248,0.044-0.479,0.134-0.693
	c0.089-0.214,0.228-0.399,0.416-0.555c0.187-0.157,0.423-0.277,0.706-0.365c0.283-0.086,0.618-0.129,1.005-0.129
	c0.411,0,0.766,0.052,1.067,0.155c0.3,0.104,0.549,0.25,0.745,0.438c0.197,0.189,0.343,0.411,0.438,0.668
	c0.096,0.258,0.143,0.539,0.143,0.846h2.184c0-0.525-0.104-1.022-0.312-1.486c-0.208-0.467-0.507-0.874-0.896-1.227
	c-0.391-0.353-0.869-0.632-1.435-0.836c-0.567-0.207-1.205-0.309-1.916-0.309c-0.665,0-1.272,0.086-1.82,0.26
	c-0.55,0.174-1.02,0.416-1.413,0.729c-0.393,0.312-0.698,0.682-0.915,1.109c-0.216,0.428-0.325,0.896-0.325,1.404
	c0,0.514,0.104,0.971,0.312,1.369s0.495,0.751,0.863,1.058c0.366,0.306,0.805,0.575,1.313,0.806
	c0.509,0.232,1.063,0.437,1.665,0.615c0.548,0.168,0.997,0.328,1.348,0.482c0.349,0.152,0.624,0.312,0.823,0.48
	c0.199,0.168,0.336,0.352,0.412,0.551c0.075,0.199,0.112,0.426,0.112,0.68c0,0.509-0.193,0.918-0.576,1.227
	c-0.385,0.31-0.958,0.465-1.721,0.465c-0.387,0-0.749-0.043-1.084-0.127s-0.625-0.217-0.871-0.398s-0.439-0.416-0.58-0.702
	c-0.142-0.286-0.213-0.628-0.213-1.026h-2.193c0,0.67,0.143,1.254,0.43,1.75c0.285,0.498,0.663,0.912,1.131,1.244
	c0.468,0.332,0.996,0.58,1.586,0.745c0.589,0.165,1.187,0.247,1.794,0.247c0.682,0,1.3-0.079,1.855-0.238
	c0.555-0.158,1.027-0.388,1.418-0.685c0.389-0.298,0.69-0.659,0.901-1.084c0.211-0.424,0.316-0.901,0.316-1.435
	c0-0.502-0.084-0.955-0.252-1.356C72.155,212.123,71.899,211.762,71.556,211.441 M116.21,206.297h3.902v10.853h2.175v-10.853h3.935
	v-1.769H116.21V206.297z M177.529,212.971c0,0.451-0.058,0.84-0.177,1.166c-0.118,0.326-0.286,0.597-0.503,0.811
	c-0.216,0.215-0.482,0.372-0.797,0.473c-0.315,0.102-0.667,0.151-1.054,0.151c-0.387,0-0.736-0.05-1.048-0.151
	c-0.312-0.101-0.578-0.258-0.798-0.473c-0.219-0.214-0.388-0.484-0.507-0.811c-0.118-0.326-0.178-0.715-0.178-1.166v-8.442h-2.184
	v8.442c0,0.723,0.119,1.355,0.356,1.898c0.237,0.545,0.566,0.997,0.988,1.361c0.422,0.363,0.92,0.637,1.495,0.818
	c0.575,0.183,1.201,0.273,1.876,0.273c0.653,0,1.267-0.091,1.838-0.273c0.573-0.182,1.072-0.455,1.5-0.818
	c0.427-0.364,0.764-0.816,1.009-1.361c0.246-0.543,0.369-1.176,0.369-1.898v-8.442h-2.185V212.971z M232.491,206.162
	c-0.501-0.522-1.099-0.926-1.795-1.209s-1.467-0.425-2.311-0.425h-3.727v12.621h3.623c0.873,0,1.666-0.142,2.379-0.424
	c0.714-0.284,1.323-0.687,1.83-1.206c0.505-0.52,0.895-1.148,1.17-1.885c0.273-0.737,0.411-1.562,0.411-2.476v-0.624
	c0-0.912-0.139-1.738-0.416-2.479C233.379,207.317,232.99,206.686,232.491,206.162 M231.871,211.159
	c0,0.659-0.075,1.251-0.227,1.777c-0.149,0.526-0.374,0.971-0.672,1.335c-0.297,0.363-0.671,0.643-1.121,0.836
	c-0.451,0.193-0.975,0.291-1.569,0.291h-1.431v-9.102h1.534c1.133,0,1.996,0.361,2.592,1.084s0.894,1.768,0.894,3.138V211.159z
	 M278.992,217.149h2.184v-12.621h-2.184V217.149z M336.171,207.943c-0.251-0.762-0.607-1.41-1.066-1.941s-1.011-0.938-1.655-1.223
	c-0.644-0.281-1.356-0.424-2.137-0.424c-0.773,0-1.481,0.143-2.124,0.424c-0.641,0.284-1.19,0.691-1.65,1.223
	c-0.459,0.531-0.817,1.18-1.075,1.941c-0.257,0.764-0.385,1.624-0.385,2.583v0.642c0,0.959,0.128,1.819,0.385,2.58
	c0.258,0.758,0.618,1.403,1.084,1.932c0.465,0.529,1.018,0.936,1.66,1.219c0.641,0.282,1.349,0.424,2.123,0.424
	c0.779,0,1.491-0.142,2.133-0.424c0.641-0.283,1.19-0.689,1.646-1.219c0.456-0.528,0.811-1.174,1.062-1.932
	c0.252-0.761,0.377-1.621,0.377-2.58v-0.642C336.548,209.567,336.423,208.707,336.171,207.943 M334.354,211.168
	c0,1.422-0.261,2.502-0.783,3.242c-0.523,0.739-1.271,1.109-2.241,1.109c-0.468,0-0.892-0.094-1.27-0.281
	c-0.379-0.188-0.701-0.466-0.967-0.832c-0.266-0.367-0.47-0.822-0.611-1.365s-0.212-1.168-0.212-1.873v-0.658
	c0-0.705,0.07-1.327,0.212-1.868c0.142-0.54,0.345-0.992,0.607-1.356c0.262-0.363,0.582-0.64,0.957-0.828
	c0.376-0.188,0.798-0.281,1.266-0.281c0.48,0,0.909,0.094,1.287,0.281c0.379,0.188,0.698,0.465,0.958,0.828
	c0.261,0.364,0.458,0.816,0.595,1.356c0.135,0.541,0.202,1.163,0.202,1.868V211.168z"/>
<path fill="#FFFFFF" d="M41.088,188.553c-2.678,0-4.568-1.214-5.62-3.605c-0.365-0.808-0.552-1.598-0.552-2.344
	c0-1.636,0.255-3.31,0.757-4.976c0.492-1.636,1.041-3.326,1.63-5.022l4.074-11.584c-2.824-0.238-5.623-0.359-8.324-0.359
	c-2.786,0-5.71,0.176-8.696,0.521c-3.893,10.815-8.131,18.674-12.6,23.363c-1.686,1.788-3.469,3.018-5.297,3.65
	c-0.476,0.185-0.979,0.281-1.482,0.281c-0.511,0-0.977-0.093-1.386-0.275c-0.408-0.184-0.746-0.422-1.004-0.709
	c-0.577-0.549-0.881-1.176-0.881-1.844c0-0.688,0.242-1.216,0.721-1.566c3.751-2.69,7.795-9.743,12.027-20.971l-0.401,0.117
	c-0.1,0.03-0.204,0.045-0.311,0.045c-0.286,0-0.585-0.103-0.914-0.313c-0.385-0.247-0.732-0.58-1.032-0.989
	c-0.974-1.347-0.647-2.105-0.202-2.504c0.894-0.791,2.498-1.514,4.901-2.208c3.113-9.667,4.804-16.707,5.029-20.942
	c-0.774,0.096-1.505,0.338-2.177,0.722l-2.809,1.59c-0.278,0.151-0.578,0.228-0.898,0.228c-0.758,0-1.608-0.416-2.6-1.271
	c-1.338-1.124-1.932-2.245-1.761-3.328c0.194-1.592,2.229-2.841,6.218-3.807c1.377-0.33,2.435-0.491,3.236-0.491
	c0.769,0,1.533,0.019,2.292,0.056c0.772,0.038,1.488,0.135,2.125,0.288c2.591,0.622,4.217,1.777,4.831,3.433
	c0.263,0.736,0.396,1.621,0.396,2.635c0,0.988-0.101,2.166-0.301,3.496c-0.199,1.33-0.487,2.849-0.854,4.516
	c-0.75,3.467-1.746,7.201-2.961,11.107c5.17-0.592,10.577-0.892,16.082-0.892h1.295l1.938-5.778
	c2.247-6.766,3.646-11.951,4.158-15.408c0.44-2.854,2.15-3.452,3.507-3.452c1.219,0,2.247,0.313,3.056,0.934
	c1.482,1.087,2.209,2.302,2.154,3.611c-0.051,1.194-0.267,2.547-0.64,4.017c-0.37,1.457-0.857,3.106-1.449,4.903
	c-0.584,1.778-1.269,3.735-2.036,5.813l-2.139,5.74l0.349,0.029c0.386,0.051,0.734,0.093,1.063,0.13
	c0.366,0.04,0.693,0.118,0.975,0.229c0.853,0.326,1.033,0.939,1.033,1.396c0,0.545-0.159,1.119-0.473,1.707
	c-0.304,0.569-0.737,1.11-1.287,1.606c-1.254,1.132-2.715,1.759-4.346,1.865c-2.927,7.705-4.655,12.498-5.139,14.25
	c-0.48,1.74-0.724,2.928-0.724,3.53c0,1.406,0.631,1.586,1.18,1.586c0.914,0,1.659-0.146,2.213-0.434l1.335-0.668
	c0.337-0.154,0.655-0.228,0.959-0.228c0.741,0,1.184,0.442,1.184,1.184c0,2.338-1.349,4.308-4.008,5.856
	C44.773,188.035,42.95,188.553,41.088,188.553"/>
<path fill="#FFFFFF" d="M76.42,184.14c-1.4,0-2.508-0.351-3.291-1.042c-1.324-1.172-1.995-2.629-1.995-4.33
	c0-1.139,0.273-2.626,0.811-4.438c-1.479,1.93-2.608,3.326-3.366,4.164c-1.204,1.328-2.272,2.381-3.174,3.127
	c-2.039,1.672-3.941,2.519-5.654,2.519c-2.692,0-4.512-1.19-5.41-3.535c-0.261-0.719-0.393-1.532-0.393-2.425
	c0-0.872,0.149-1.854,0.442-2.918c0.285-1.033,0.657-2.116,1.104-3.221c0.443-1.099,0.924-2.227,1.445-3.383l1.549-3.442
	c2.746-6.099,2.315-7.087,2.256-7.181c-0.113-0.178-0.385-0.471-1.039-0.847c-0.264-0.153-0.707-0.53-0.707-1.331
	c0-0.52,0.204-1.007,0.605-1.447c0.332-0.367,0.761-0.69,1.276-0.959c1.053-0.494,2.107-0.742,3.147-0.742s1.83,0.117,2.413,0.355
	c0.575,0.237,1.054,0.546,1.427,0.919c0.769,0.769,1.158,1.646,1.158,2.606c0,0.822-0.133,1.748-0.396,2.751
	c-0.254,0.967-0.589,2.026-0.996,3.147c-0.404,1.117-0.847,2.272-1.328,3.467c-1.316,3.09-2.217,5.164-2.682,6.172l-1.067,2.22
	c-0.738,1.642-0.818,2.274-0.818,2.47c0,0.545,0.103,0.686,0.104,0.688c0.014,0.008,0.122,0.052,0.363,0.052
	c0.202,0,0.565-0.086,1.145-0.498c0.556-0.394,1.181-0.937,1.858-1.612c0.691-0.693,1.419-1.502,2.162-2.404
	c0.75-0.909,1.495-1.867,2.212-2.85c1.413-1.921,2.459-3.48,3.11-4.633c5.389-9.533,6.338-11.088,6.556-11.352
	c0.735-0.988,1.558-1.498,2.438-1.498c0.709,0,1.343,0.084,1.886,0.246c0.563,0.168,1.058,0.418,1.47,0.74
	c1.456,1.073,1.241,2.131,0.982,2.664c-4.614,9.625-7.13,15.732-7.48,18.15c-0.113,1.006-0.136,1.468-0.136,1.675
	c0,1.457,0.448,1.457,0.595,1.457c0.696,0,1.264-0.119,1.687-0.353c0.849-0.472,1.194-0.537,1.441-0.537
	c0.84,0,1.383,0.543,1.383,1.384c0,1.909-0.936,3.521-2.781,4.786C79.497,183.731,78.049,184.14,76.42,184.14"/>
<path fill="#FFFFFF" d="M125.989,184.14c-1.049,0-1.923-0.132-2.599-0.394c-0.689-0.266-1.317-0.691-1.867-1.264
	c-1.201-1.242-1.81-2.81-1.81-4.662c0-1.726,0.223-3.341,0.663-4.799c0.425-1.414,0.938-2.807,1.522-4.141
	c0.58-1.324,1.171-2.557,1.759-3.665c0.577-1.087,1.016-1.951,1.319-2.595c0.701-1.533,0.849-2.285,0.849-2.646
	c0-0.3-0.021-0.395-0.453-0.395c-0.281,0-1.47,0.35-4.996,4.857c-1.997,2.62-3.407,4.538-4.186,5.696l-1.986,2.876
	c-1.065,2.035-1.909,3.771-2.482,5.122l-1.467,3.337c-0.394,0.89-0.735,1.511-1.044,1.896c-0.408,0.506-0.989,0.774-1.684,0.774
	c-0.555,0-1.101-0.091-1.625-0.269c-0.522-0.178-0.982-0.418-1.368-0.713c-0.93-0.691-1.404-1.479-1.404-2.34
	c0-0.717,0.217-1.636,0.664-2.811c0.417-1.096,0.94-2.331,1.554-3.674l4.02-8.5c1.811-3.984,2.082-5.282,2.082-5.701
	c0-0.528-0.154-0.553-0.452-0.553c-0.405,0-1.756,0.446-5.549,4.584c-2.176,2.48-3.779,4.371-4.756,5.612l-2.583,3.271
	c-1.049,2.017-1.91,3.754-2.518,5.101l-1.554,3.335c-0.439,0.9-0.818,1.524-1.162,1.911c-0.439,0.495-1.027,0.746-1.746,0.746
	c-0.594,0-1.174-0.108-1.725-0.322c-0.54-0.209-1.019-0.485-1.421-0.823c-0.897-0.754-1.351-1.615-1.351-2.562
	c0-0.296,0.084-0.768,0.707-2.016l1.083-2.309c0.351-0.703,0.751-1.581,1.195-2.617l1.602-3.92
	c2.754-6.885,3.332-9.596,3.332-10.656c0-0.65-0.179-1.086-0.565-1.369l-0.561-0.391c-0.271-0.189-0.596-0.568-0.596-1.297
	c0-0.508,0.188-0.988,0.559-1.428c0.316-0.373,0.727-0.701,1.225-0.973c0.973-0.498,1.96-0.748,2.943-0.748
	c0.966,0,1.721,0.111,2.31,0.336c0.576,0.221,1.085,0.527,1.514,0.91c0.886,0.815,1.332,1.701,1.332,2.635
	c0,0.783-0.104,1.584-0.31,2.377c-0.197,0.757-0.446,1.535-0.741,2.312c-0.029,0.074-0.057,0.148-0.086,0.223
	c1.36-1.737,2.256-2.859,2.676-3.348c1.5-1.732,2.694-2.945,3.551-3.602c1.638-1.225,3.228-1.844,4.73-1.844
	c1.549,0,2.81,0.502,3.751,1.488c0.933,0.977,1.406,2.264,1.406,3.827c0,1.021-0.204,2.183-0.607,3.468l1.372-1.812l2.374-2.838
	c1.487-1.668,2.823-2.782,3.98-3.32c1.178-0.547,2.137-0.813,2.93-0.813c0.763,0,1.524,0.142,2.264,0.42
	c0.754,0.283,1.405,0.697,1.935,1.228c1.11,1.066,1.676,2.495,1.676,4.241c0,1.587-0.369,3.229-1.094,4.882
	c-0.689,1.568-1.304,2.88-1.828,3.899c-0.512,0.996-1.006,1.998-1.481,3.004c-1.343,2.926-2.024,5.102-2.024,6.462
	c0,0.825,0.261,0.825,0.538,0.825c0.681,0,1.307-0.146,1.86-0.434c1.009-0.525,1.371-0.599,1.611-0.599
	c0.806,0,1.327,0.521,1.327,1.327c0,1.953-0.988,3.594-2.937,4.878C128.311,183.703,127.099,184.14,125.989,184.14"/>
<path fill="#FFFFFF" d="M145.156,184.14c-2.836,0-5.107-0.888-6.753-2.64c-1.598-1.74-2.406-3.934-2.406-6.52
	c0-1.143,0.085-2.252,0.253-3.299c0.165-1.027,0.382-2.081,0.644-3.131c0.263-1.055,0.562-2.11,0.887-3.142l3.215-9.819
	c2.519-7.879,4.122-14.113,4.764-18.528c0.344-2.636,2.071-3.03,3.069-3.03c0.96,0,1.793,0.264,2.474,0.779
	c1.21,0.98,1.8,2.062,1.764,3.225c-0.03,0.965-0.17,2.049-0.417,3.225c-0.243,1.154-0.556,2.418-0.929,3.761
	c-0.372,1.335-0.804,2.764-1.286,4.247c-1.095,3.236-1.96,5.725-2.58,7.425c0.348-0.399,0.674-0.737,0.975-1.011
	c2.237-1.973,4.61-2.973,7.056-2.973c3.683,0,6.165,1.938,7.376,5.756c0.384,1.276,0.579,2.863,0.579,4.724s-0.276,3.729-0.82,5.558
	c-0.541,1.819-1.284,3.535-2.208,5.098c-0.925,1.562-2.017,2.994-3.246,4.252c-1.226,1.256-2.536,2.341-3.895,3.229
	C150.771,183.192,147.906,184.14,145.156,184.14 M154.208,158.461c-0.593,0-1.244,0.26-1.934,0.775
	c-0.781,0.581-1.614,1.363-2.476,2.326c-0.875,0.979-1.752,2.119-2.606,3.393c-0.86,1.28-1.646,2.62-2.337,3.982
	c-1.49,2.964-2.246,5.495-2.246,7.52c0,1.756,0.642,2.504,2.146,2.504c1.61,0,3.295-0.75,5.006-2.232
	c2.696-2.333,4.538-5.732,5.475-10.105c0.314-1.438,0.472-2.955,0.472-4.511c0-1.848-0.246-2.676-0.453-3.046
	C155.021,158.647,154.698,158.461,154.208,158.461"/>
<path fill="#FFFFFF" d="M171.274,184.14c-1.05,0-1.924-0.132-2.599-0.394c-0.692-0.268-1.32-0.693-1.868-1.265
	c-0.543-0.563-0.986-1.286-1.316-2.149c-0.326-0.853-0.493-1.847-0.493-2.957c0-1.084,0.246-2.533,0.729-4.307
	c0.469-1.727,1.077-3.718,1.804-5.919l2.412-7.147c3.39-9.85,5.377-17.555,5.904-22.907c0.285-2.665,2.048-3.063,3.073-3.063
	c1.033,0,1.911,0.26,2.609,0.772c1.311,0.995,1.949,2.146,1.902,3.422c-0.04,1.075-0.229,2.388-0.562,3.901
	c-0.329,1.5-0.758,3.146-1.276,4.897c-0.518,1.761-1.119,3.638-1.788,5.582l-3.958,11.647c-2.24,6.512-3.375,10.748-3.375,12.591
	c0,0.825,0.261,0.825,0.538,0.825c0.681,0,1.307-0.146,1.86-0.434c0.953-0.496,1.334-0.599,1.611-0.599
	c0.806,0,1.327,0.521,1.327,1.327c0,1.953-0.988,3.594-2.937,4.878C173.594,183.703,172.383,184.14,171.274,184.14"/>
<path fill="#FFFFFF" d="M187.186,199.652c-0.846,0-1.562-0.178-2.128-0.531c-1.194-0.715-1.777-1.452-1.777-2.25
	c0-0.616,0.324-1.426,1.866-1.781c0.784-0.182,1.613-0.553,2.466-1.107c0.886-0.574,1.754-1.258,2.582-2.029
	c2.448-2.338,4.375-4.912,5.727-7.652c1.161-2.434,2.114-4.779,2.83-6.964l0.925-2.822c-0.674,0.897-1.321,1.761-1.321,1.761
	c-1.832,2.318-3.377,3.99-4.601,4.978c-2.379,1.915-4.569,2.888-6.509,2.888c-2.69,0-4.51-1.191-5.41-3.535
	c-0.261-0.72-0.392-1.533-0.392-2.427c0-0.875,0.149-1.856,0.443-2.918c0.282-1.024,0.653-2.108,1.102-3.22
	c0.444-1.098,0.925-2.227,1.446-3.383l1.549-3.443c2.745-6.098,2.315-7.086,2.256-7.179c-0.113-0.179-0.385-0.472-1.039-0.849
	c-0.264-0.154-0.707-0.529-0.707-1.33c0-0.519,0.204-1.006,0.605-1.447c0.331-0.367,0.761-0.69,1.276-0.958
	c1.053-0.495,2.107-0.742,3.147-0.742s1.829,0.116,2.412,0.354c0.575,0.237,1.055,0.547,1.428,0.92
	c0.768,0.768,1.158,1.645,1.158,2.605c0,0.822-0.133,1.748-0.397,2.751c-0.251,0.958-0.586,2.017-0.995,3.147
	c-0.404,1.117-0.848,2.271-1.328,3.467c-1.319,3.096-2.22,5.17-2.683,6.173l-1.067,2.219c-0.737,1.644-0.817,2.275-0.817,2.47
	c0,0.545,0.103,0.686,0.104,0.687c0.014,0.009,0.122,0.053,0.363,0.053c0.305,0,0.686-0.14,1.104-0.405
	c0.509-0.32,1.069-0.758,1.666-1.299c0.614-0.56,1.258-1.214,1.913-1.943c0.669-0.745,1.33-1.53,1.964-2.332
	c1.671-2.064,2.921-3.852,3.72-5.319c6.219-11.458,6.51-11.862,6.619-12.014c0.784-1.021,1.62-1.533,2.495-1.533
	c0.708,0,1.343,0.083,1.886,0.246c0.563,0.168,1.059,0.417,1.471,0.739c1.387,1.006,1.175,2.138,0.923,2.721
	c-0.29,0.674-0.646,1.613-1.059,2.794c-3.616,10.493-6.002,17.14-7.086,19.749c-1.083,2.607-2.042,4.734-2.85,6.32
	c-0.812,1.596-1.777,3.228-2.87,4.852c-1.094,1.627-2.281,3.135-3.526,4.479c-2.909,3.105-5.711,4.795-8.331,5.021
	C187.545,199.646,187.362,199.652,187.186,199.652"/>
<path fill="#FFFFFF" d="M236.82,188.59c-2.817,0-5.277-0.84-7.313-2.493c-2.226-1.785-3.157-4.16-2.771-7.058
	c0.224-1.609,0.705-3.855,1.433-6.678c0.724-2.812,1.666-5.863,2.799-9.066c2.584-7.332,5.69-13.958,9.236-19.695
	c0.557-0.889,1.284-1.412,2.166-1.555c1.107-0.151,2.089-0.227,2.929-0.227c0.858,0,1.642,0.098,2.328,0.293
	c0.701,0.198,1.266,0.465,1.677,0.793c0.909,0.758,1.064,1.649,0.446,2.516c-4.409,6.65-8.321,14.896-11.619,24.498
	c-1.244,3.658-1.997,6.228-2.237,7.638c-0.248,1.448-0.427,2.438-0.539,2.97c-0.104,0.5-0.157,0.938-0.157,1.301
	c0,0.422,0.139,0.812,1.144,0.812c0.979,0,2.1-0.233,3.329-0.694c1.253-0.471,2.623-1.144,4.071-2
	c1.452-0.858,2.985-1.925,4.555-3.166c1.567-1.238,3.127-2.649,4.634-4.195c1.509-1.545,2.951-3.238,4.287-5.036
	c1.333-1.796,2.514-3.714,3.509-5.702c2.202-4.357,3.318-8.707,3.318-12.932c0-5.78-2.273-9.51-6.948-11.404
	c-1.617-0.643-3.325-0.969-5.074-0.969c-1.777,0-3.299,0.117-4.523,0.345c-1.232,0.229-2.43,0.553-3.557,0.962
	c-2.281,0.816-4.225,1.92-5.78,3.284c-0.544,0.327-1.122,0.471-1.783,0.471c-0.655,0-1.357-0.188-2.088-0.562
	c-0.711-0.361-1.358-0.819-1.926-1.361c-1.338-1.309-1.873-2.605-1.595-3.857c0.3-1.744,2.718-3.192,7.389-4.406
	c3.761-0.965,7.598-1.454,11.407-1.454c3.819,0,7.312,0.528,10.382,1.573c3.081,1.047,5.622,2.481,7.553,4.261
	c3.617,3.366,5.451,7.929,5.451,13.562c0,7.395-2.588,14.624-7.69,21.485c-4.67,6.351-10.312,11.239-16.767,14.526
	C244.295,187.506,240.367,188.59,236.82,188.59"/>
<path fill="#FFFFFF" d="M281.363,184.139c-2.996,0-5.444-0.92-7.281-2.733c-2.054-2.054-3.031-4.86-2.91-8.343
	c0.078-1.726,0.369-3.396,0.864-4.971c0.49-1.558,1.157-3.091,1.982-4.556c0.823-1.459,1.801-2.858,2.905-4.159
	c1.109-1.305,2.33-2.467,3.63-3.451c2.853-2.135,5.789-3.216,8.728-3.216c3.579,0,6.006,1.513,7.213,4.497
	c0.417,1,0.618,2.191,0.598,3.539c-0.021,1.344-0.281,2.604-0.776,3.748c-0.49,1.133-1.178,2.178-2.043,3.105
	c-0.854,0.914-1.881,1.742-3.048,2.459c-1.155,0.713-2.431,1.322-3.791,1.814c-2.604,0.918-5.411,1.43-8.356,1.521
	c-0.015,0.154-0.024,0.328-0.031,0.52c-0.018,0.479,0.035,1.023,0.157,1.625c0.115,0.571,0.313,1.083,0.592,1.523
	c0.567,0.945,1.319,1.383,2.371,1.383c2.072,0,4.125-0.62,6.104-1.844c0.7-0.412,1.265-0.834,1.69-1.258
	c0.614-0.615,1.182-0.916,1.73-0.916c0.418,0,1.021,0.168,1.518,0.957c0.33,0.526,0.498,1.125,0.498,1.776
	c0,1.172-0.341,2.209-1.011,3.081C290.104,182.842,286.304,184.139,281.363,184.139 M288.65,157.973
	c-1.744,0-3.491,1.282-5.195,3.812c-1.342,2.029-2.471,4.436-3.358,7.154c2.565-0.463,4.85-1.618,6.797-3.439
	c1.998-1.91,3.012-3.73,3.012-5.41C289.905,157.973,289.059,157.973,288.65,157.973"/>
<path fill="#FFFFFF" d="M305.771,184.11c-2.629,0-4.754-0.653-6.314-1.944c-1.355-1.137-2.042-2.512-2.042-4.088
	c0-0.705,0.157-1.371,0.467-1.978c0.299-0.586,0.677-1.085,1.121-1.485c0.932-0.865,1.945-1.307,3.009-1.307
	c1.173,0,1.872,0.711,1.872,1.9c0,1.731,0.532,2.889,1.626,3.539c0.364,0.218,0.741,0.328,1.122,0.328
	c0.44,0,0.812-0.047,1.103-0.138c0.272-0.087,0.531-0.228,0.766-0.418c0.522-0.42,0.765-0.87,0.765-1.417
	c0-0.641-0.145-1.234-0.43-1.766c-0.328-0.609-0.745-1.262-1.239-1.939l-1.64-2.302c-2.372-3.162-3.577-6.153-3.577-8.884
	c0-2.338,0.992-4.473,2.949-6.348c2.196-2.094,5.038-3.156,8.447-3.156c2.999,0,5.39,0.766,7.105,2.274
	c1.457,1.267,2.197,2.752,2.197,4.417c0,1.738-0.673,3.146-1.999,4.186c-0.946,0.736-1.922,1.109-2.901,1.109
	c-0.265,0-0.528-0.027-0.787-0.08c-0.654-0.138-1.165-0.478-1.521-1.012c-0.371-0.557-0.451-1.214-0.229-1.898
	c0.13-0.404,0.194-0.832,0.194-1.271c0-0.412-0.076-0.798-0.227-1.146c-0.151-0.347-0.355-0.643-0.607-0.879
	c-0.535-0.506-1.062-0.75-1.613-0.75c-0.651,0-1.187,0.068-1.589,0.205c-0.39,0.133-0.735,0.324-1.028,0.571
	c-0.575,0.531-0.861,1.185-0.861,1.985c0,0.89,0.15,1.66,0.447,2.287c0.324,0.686,0.733,1.385,1.216,2.076
	c0.489,0.702,1.036,1.434,1.622,2.172c0.605,0.762,1.174,1.578,1.688,2.429c1.268,2.032,1.912,3.874,1.912,5.468
	c0,1.592-0.346,2.956-1.026,4.053c-0.661,1.064-1.527,1.987-2.573,2.745C310.998,183.281,308.499,184.11,305.771,184.11"/>
<path fill="#FFFFFF" d="M328.002,184.14c-2.518,0-4.274-1.05-5.221-3.12c-0.347-0.714-0.524-1.592-0.524-2.596
	c0-0.965,0.17-2.041,0.502-3.198c0.321-1.12,0.724-2.31,1.196-3.532c0.47-1.218,0.99-2.47,1.549-3.723l1.515-3.6
	c1.329-3.23,1.607-4.533,1.607-5.056c0-1.06-0.147-1.3-0.153-1.31c-0.133-0.203-0.272-0.357-0.41-0.461l-0.562-0.391
	c-0.272-0.189-0.597-0.568-0.597-1.297c0-0.508,0.188-0.989,0.559-1.428c0.317-0.375,0.729-0.701,1.225-0.973
	c0.973-0.498,2.102-0.748,3.359-0.748c4.085,0,4.941,1.596,4.941,2.934c0,1.808-0.472,3.883-1.401,6.169
	c-0.906,2.224-1.684,4.034-2.311,5.383l-1.713,3.942c-1.217,2.803-1.834,4.818-1.834,5.994c0,0.439,0.102,0.539,0.538,0.539
	c0.88,0,1.324-0.129,1.54-0.238c0.543-0.271,0.927-0.393,1.243-0.393c0.711,0,1.471,0.446,1.471,1.699
	c0,1.035-0.455,2.092-1.351,3.139C331.884,183.379,330.145,184.14,328.002,184.14 M335.431,149.058
	c-0.562,0-1.104-0.123-1.613-0.363c-0.616-0.29-1.158-0.712-1.608-1.253c-0.93-1.081-1.402-2.213-1.402-3.361
	c0-1.13,0.194-1.976,0.59-2.588c0.371-0.572,0.844-1.046,1.408-1.406c1.033-0.666,2.038-1.006,2.987-1.006
	c0.866,0,1.563,0.066,2.071,0.196c0.531,0.136,1.03,0.364,1.483,0.681c1.137,0.767,1.716,1.743,1.716,2.903
	c0,1.001-0.15,1.86-0.446,2.552c-0.291,0.678-0.68,1.28-1.155,1.787c-0.477,0.51-1.024,0.926-1.63,1.239
	c-0.612,0.317-1.268,0.517-1.944,0.593C335.732,149.049,335.581,149.058,335.431,149.058"/>
<path fill="#FFFFFF" d="M343.138,199.629c-0.407,0-0.737-0.035-1.01-0.106c-0.505-0.132-0.967-0.322-1.371-0.57
	c-0.988-0.633-1.466-1.257-1.466-1.909c0-0.602,0.252-1.656,1.936-1.947c0.799-0.137,1.66-0.47,2.558-0.988
	c0.923-0.534,1.817-1.193,2.658-1.959c2.866-2.655,5.198-6.647,6.942-11.881c-2.432,2.57-5.088,3.871-7.918,3.871
	c-3.528,0-5.933-1.885-7.144-5.605c-0.404-1.23-0.61-2.755-0.61-4.527c0-1.764,0.257-3.554,0.761-5.32
	c0.499-1.756,1.19-3.441,2.056-5.014c0.862-1.568,1.892-3.035,3.06-4.363c1.168-1.324,2.44-2.485,3.779-3.449
	c2.823-2.09,5.689-3.15,8.513-3.15c2.592,0,4.562,1.072,5.867,3.188c0.19-0.248,0.398-0.484,0.622-0.708
	c0.646-0.644,1.239-0.958,1.818-0.958c0.444,0,0.916,0.08,1.398,0.236c0.46,0.149,0.911,0.355,1.341,0.612
	c1.63,0.966,1.629,1.884,1.341,2.483c-1.033,2.238-1.91,4.468-2.604,6.623l-4.244,13.537c-3.39,10.402-7.785,17.238-13.063,20.318
	c-1.436,0.848-2.716,1.348-3.804,1.485C344.01,199.594,343.533,199.629,343.138,199.629 M355.709,157.457
	c-0.739,0-1.5,0.238-2.258,0.709c-0.812,0.504-1.601,1.198-2.342,2.064c-0.761,0.89-1.482,1.941-2.143,3.123
	c-0.669,1.201-1.256,2.484-1.745,3.814c-0.49,1.332-0.881,2.721-1.159,4.123c-0.277,1.393-0.416,2.536-0.416,3.402
	c0,0.885,0.025,1.561,0.08,2.009c0.048,0.397,0.143,0.748,0.279,1.037c0.334,0.702,0.731,0.792,1.039,0.792
	c0.586,0,1.188-0.219,1.784-0.652c0.677-0.488,1.408-1.18,2.176-2.056c0.777-0.89,1.567-1.952,2.348-3.158
	c0.784-1.215,1.543-2.544,2.257-3.95c1.553-3.07,2.663-6.037,3.3-8.822c-0.088-0.25-0.324-0.637-0.756-1.069
	C357.229,157.932,356.381,157.457,355.709,157.457"/>
<path fill="#FFFFFF" d="M390.633,184.14c-1.048,0-1.939-0.119-2.649-0.353c-0.738-0.242-1.402-0.631-1.974-1.16
	c-1.275-1.146-1.925-2.754-1.925-4.777c0-2.305,0.725-5.199,2.151-8.602c1.015-2.278,1.745-3.863,2.171-4.719l0.971-2.027
	c0.677-1.396,0.818-2.176,0.818-2.584c0-0.11,0-0.338-0.854-0.338c-0.097,0-0.647,0.071-2.002,1.483
	c-1.071,1.118-2.018,2.156-2.812,3.084l-2.434,2.919l-4.691,5.979c-1.05,2.017-1.911,3.754-2.521,5.103l-1.553,3.335
	c-0.439,0.9-0.819,1.524-1.163,1.911c-0.438,0.495-1.025,0.746-1.746,0.746c-0.593,0-1.174-0.108-1.724-0.322
	c-0.541-0.209-1.02-0.485-1.422-0.823c-0.896-0.754-1.352-1.615-1.352-2.562c0-0.296,0.085-0.768,0.708-2.016l1.082-2.309
	c0.353-0.703,0.752-1.581,1.195-2.617l1.603-3.92c2.754-6.885,3.331-9.596,3.331-10.656c0-0.65-0.179-1.086-0.564-1.369
	l-0.561-0.391c-0.271-0.189-0.596-0.568-0.596-1.297c0-0.508,0.188-0.988,0.559-1.428c0.315-0.374,0.728-0.701,1.225-0.973
	c0.973-0.498,1.961-0.748,2.943-0.748c0.971,0,1.721,0.111,2.291,0.34c0.566,0.226,1.054,0.539,1.447,0.934
	c0.844,0.799,1.274,1.678,1.274,2.607c0,0.783-0.1,1.578-0.293,2.367c-0.184,0.736-0.414,1.492-0.688,2.246
	c0.207-0.271,0.38-0.496,0.523-0.674l2.019-2.424c1.535-1.795,2.722-2.956,3.629-3.555c1.836-1.238,3.281-1.842,4.415-1.842
	c1.057,0,1.972,0.142,2.72,0.418c0.755,0.281,1.424,0.688,1.989,1.209c1.201,1.115,1.812,2.549,1.812,4.262
	c0,1.6-0.367,3.287-1.09,5.014c-0.688,1.645-1.297,3.004-1.812,4.043c-0.503,1.014-0.979,2.043-1.435,3.082
	c-1.39,3.092-2.091,5.34-2.091,6.682c0,0.22,0.517,0.252,0.824,0.252c0.682,0,1.308-0.146,1.86-0.434
	c1.009-0.525,1.371-0.599,1.612-0.599c0.806,0,1.326,0.521,1.326,1.327c0,1.953-0.988,3.594-2.937,4.878
	C392.968,183.703,391.752,184.14,390.633,184.14"/>
</svg>
