<?xml version="1.0" encoding="utf-8"?>
<!-- Generator: Adobe Illustrator 16.0.4, SVG Export Plug-In . SVG Version: 6.00 Build 0)  -->
<!DOCTYPE svg PUBLIC "-//W3C//DTD SVG 1.1//EN" "http://www.w3.org/Graphics/SVG/1.1/DTD/svg11.dtd">
<svg version="1.1" id="Layer_1" xmlns="http://www.w3.org/2000/svg" xmlns:xlink="http://www.w3.org/1999/xlink" x="0px" y="0px"
	 width="112px" height="110px" viewBox="0 0 112 110" enable-background="new 0 0 112 110" xml:space="preserve">
<path fill="#FFFFFF" d="M52.097,7.995c1.036,0,2.105,0.017,3.179,0.049l0.229,0.007l0.228-0.007
	c1.069-0.032,2.136-0.048,3.172-0.048c15.503,0,26.436,3.501,33.425,10.704c7.277,7.499,10.57,19.277,10.066,36.008l-0.007,0.227
	l0.007,0.228c0.504,16.731-2.789,28.511-10.065,36.009c-6.988,7.202-17.921,10.703-33.423,10.703c-1.034,0-2.103-0.016-3.175-0.049
	l-0.228-0.007l-0.229,0.007c-1.073,0.033-2.142,0.049-3.177,0.049c-15.501,0-26.433-3.501-33.421-10.701
	c-7.277-7.5-10.569-19.279-10.065-36.011l0.007-0.228l-0.007-0.228c-0.504-16.731,2.788-28.51,10.065-36.009
	C25.667,11.496,36.598,7.995,52.097,7.995 M52.097,0.43c-35.59,0-52.153,17.719-51.045,54.505
	c-1.108,36.788,15.454,54.506,51.048,54.506c1.116,0,2.252-0.018,3.406-0.053c1.152,0.035,2.286,0.052,3.402,0.052
	c35.594,0,52.158-17.716,51.05-54.505C111.066,18.146,94.502,0.43,58.903,0.43c-1.113,0-2.247,0.018-3.397,0.052
	C54.349,0.447,53.215,0.43,52.097,0.43"/>
<path fill="#FFFFFF" d="M43.118,39.477c-0.084-3.855-0.199-7.711-0.347-11.566c-0.271-1.208-1.401-2.162-2.716-2.225
	c-2.166-0.102-4.332-0.228-6.498-0.374c-1.482-0.101-2.589,0.985-2.485,2.444c0.558,7.932,0.872,15.865,0.942,23.797
	c1.393-2.897,3.176-5.493,5.366-7.702C39.089,42.126,41.023,40.668,43.118,39.477 M78.137,17.983
	c-2.223,0.184-4.444,0.34-6.667,0.471c-1.521,0.09-2.812,1.299-2.877,2.723c-0.014,0.281-0.026,0.562-0.04,0.843
	c0.021-0.001,0.042-0.002,0.062-0.003c-0.393,8.37-0.636,16.74-0.729,25.109c-3.754-3.082-8.277-4.635-13.323-4.644
	c-5.776-0.001-11.433,2.25-15.505,6.373c-4.431,4.469-6.864,10.996-7.099,18.197c-0.002,0.056-0.004,0.11-0.006,0.166
	c-0.325,9.281,3.113,14.816,6.302,17.811c4.068,3.884,10.067,5.936,16.246,5.924c1.281-0.005,2.526-0.095,3.731-0.268
	c0.003,0,0.008-0.002,0.011-0.002c2.427-0.375,2.358-2.252,2.359-2.254c-0.057-3.021-0.106-6.043-0.147-9.065
	c-1.504,0.606-3.126,0.928-4.75,0.928c-3.327-0.004-6.413-1.224-8.64-3.493c-2.425-2.463-3.618-5.902-3.552-9.943
	c0.001-0.055,0.002-0.109,0.003-0.162c0.134-8.137,4.941-13.567,12.182-13.551c4.873,0,9.839,3.155,11.755,8.73
	c0.196,0.714,0.442,2.101,0.484,4.597c0.079,4.834,0.208,9.668,0.388,14.502c0.299,1.172,1.405,2.082,2.688,2.143
	c2.157,0.1,4.316,0.223,6.475,0.363c1.477,0.101,2.583-0.993,2.482-2.451c-1.37-20.217-1.147-40.43,0.67-60.646
	C80.772,18.921,79.657,17.857,78.137,17.983"/>
</svg>
